SplineFontDB: 3.2
FontName: NoitaRegular
FullName: Noita Regular
FamilyName: Noita
Weight: Regular
Copyright: Copyright (c) 2025, Nolla & Semi-Minus(33041)
UComments: "2025-11-27: Created with FontForge (http://fontforge.org)"
Version: 001.000
ItalicAngle: 0
UnderlinePosition: -280
UnderlineWidth: 140
Ascent: 1200
Descent: 200
InvalidEm: 0
LayerCount: 2
Layer: 0 0 "+gMxmbwAA" 1
Layer: 1 0 "+Uk1mbwAA" 0
XUID: [1021 279 -1965050599 20264]
FSType: 0
OS2Version: 0
OS2_WeightWidthSlopeOnly: 0
OS2_UseTypoMetrics: 1
CreationTime: 1764237469
ModificationTime: 1764249860
PfmFamily: 17
TTFWeight: 400
TTFWidth: 5
LineGap: 0
VLineGap: 0
OS2TypoAscent: 1200
OS2TypoAOffset: 0
OS2TypoDescent: 200
OS2TypoDOffset: 0
OS2TypoLinegap: 0
OS2WinAscent: 1200
OS2WinAOffset: 0
OS2WinDescent: 200
OS2WinDOffset: 0
HheadAscent: 1200
HheadAOffset: 0
HheadDescent: 200
HheadDOffset: 0
OS2Vendor: 'PfEd'
MarkAttachClasses: 1
DEI: 91125
LangName: 1033
Encoding: ISO8859-1
UnicodeInterp: none
NameList: AGL For New Fonts
DisplaySize: -48
AntiAlias: 1
FitToEm: 0
WinInfo: 0 51 18
BeginPrivate: 0
EndPrivate
BeginChars: 256 95

StartChar: exclam
Encoding: 33 33 1
Width: 600
Flags: HW
LayerCount: 2
Back
Fore
SplineSet
200 100 m 1
 200 200 l 1
 300 200 l 1
 400 200 l 1
 400 100 l 1
 400 0 l 1
 300 0 l 1
 200 0 l 1
 200 100 l 1
0 1000 m 1
 0 1200 l 1
 100 1200 l 1
 200 1200 l 1
 200 1000 l 1
 200 800 l 1
 300 800 l 1
 400 800 l 1
 400 600 l 1
 400 400 l 1
 300 400 l 1
 200 400 l 1
 200 600 l 1
 200 800 l 1
 100 800 l 1
 0 800 l 1
 0 1000 l 1
EndSplineSet
Validated: 5
EndChar

StartChar: quotedbl
Encoding: 34 34 2
Width: 800
Flags: HW
LayerCount: 2
Back
Fore
SplineSet
400 1000 m 1
 400 1200 l 1
 500 1200 l 1
 600 1200 l 1
 600 1000 l 1
 600 800 l 1
 500 800 l 1
 400 800 l 1
 400 1000 l 1
0 1000 m 1
 0 1200 l 1
 100 1200 l 1
 200 1200 l 1
 200 1000 l 1
 200 800 l 1
 100 800 l 1
 0 800 l 1
 0 1000 l 1
EndSplineSet
Validated: 1
EndChar

StartChar: numbersign
Encoding: 35 35 3
Width: 1200
Flags: HW
LayerCount: 2
Back
Fore
SplineSet
200 1100 m 1
 200 1200 l 1
 300 1200 l 1
 400 1200 l 1
 400 1100 l 1
 400 1000 l 1
 500 1000 l 1
 600 1000 l 1
 600 1100 l 1
 600 1200 l 1
 700 1200 l 1
 800 1200 l 1
 800 1100 l 1
 800 1000 l 1
 900 1000 l 1
 1000 1000 l 1
 1000 900 l 1
 1000 800 l 1
 900 800 l 1
 800 800 l 1
 800 700 l 1
 800 600 l 1
 900 600 l 1
 1000 600 l 1
 1000 500 l 1
 1000 400 l 1
 900 400 l 1
 800 400 l 1
 800 300 l 1
 800 200 l 1
 700 200 l 1
 600 200 l 1
 600 300 l 1
 600 400 l 1
 500 400 l 1
 400 400 l 1
 400 300 l 1
 400 200 l 1
 300 200 l 1
 200 200 l 1
 200 300 l 1
 200 400 l 1
 100 400 l 1
 0 400 l 1
 0 500 l 1
 0 600 l 1
 100 600 l 1
 200 600 l 1
 200 700 l 1
 200 800 l 1
 100 800 l 1
 0 800 l 1
 0 900 l 1
 0 1000 l 1
 100 1000 l 1
 200 1000 l 1
 200 1100 l 1
600 700 m 1
 600 800 l 1
 500 800 l 1
 400 800 l 1
 400 700 l 1
 400 600 l 1
 500 600 l 1
 600 600 l 1
 600 700 l 1
EndSplineSet
Validated: 1
EndChar

StartChar: dollar
Encoding: 36 36 4
Width: 1200
Flags: HW
LayerCount: 2
Back
Fore
SplineSet
200 1100 m 1
 200 1200 l 1
 500 1200 l 1
 800 1200 l 1
 800 1100 l 1
 800 1000 l 1
 900 1000 l 1
 1000 1000 l 1
 1000 900 l 1
 1000 800 l 1
 900 800 l 1
 800 800 l 1
 800 900 l 1
 800 1000 l 1
 700 1000 l 1
 600 1000 l 1
 600 800 l 1
 600 600 l 1
 700 600 l 1
 800 600 l 1
 800 500 l 1
 800 400 l 1
 900 400 l 1
 1000 400 l 1
 1000 300 l 1
 1000 200 l 1
 900 200 l 1
 800 200 l 1
 800 100 l 1
 800 0 l 1
 500 0 l 1
 200 0 l 1
 200 100 l 1
 200 200 l 1
 100 200 l 1
 0 200 l 1
 0 300 l 1
 0 400 l 1
 100 400 l 1
 200 400 l 1
 200 300 l 1
 200 200 l 1
 300 200 l 1
 400 200 l 1
 400 400 l 1
 400 600 l 1
 300 600 l 1
 200 600 l 1
 200 700 l 1
 200 800 l 1
 100 800 l 1
 0 800 l 1
 0 900 l 1
 0 1000 l 1
 100 1000 l 1
 200 1000 l 1
 200 1100 l 1
400 900 m 1
 400 1000 l 1
 300 1000 l 1
 200 1000 l 1
 200 900 l 1
 200 800 l 1
 300 800 l 1
 400 800 l 1
 400 900 l 1
800 300 m 1
 800 400 l 1
 700 400 l 1
 600 400 l 1
 600 300 l 1
 600 200 l 1
 700 200 l 1
 800 200 l 1
 800 300 l 1
EndSplineSet
Validated: 5
EndChar

StartChar: percent
Encoding: 37 37 5
Width: 1000
Flags: HW
LayerCount: 2
Back
Fore
SplineSet
600 300 m 1
 600 400 l 1
 700 400 l 1
 800 400 l 1
 800 300 l 1
 800 200 l 1
 700 200 l 1
 600 200 l 1
 600 300 l 1
0 900 m 1
 0 1000 l 1
 100 1000 l 1
 200 1000 l 1
 200 900 l 1
 200 800 l 1
 100 800 l 1
 0 800 l 1
 0 900 l 1
600 1100 m 1
 600 1200 l 1
 700 1200 l 1
 800 1200 l 1
 800 1100 l 1
 800 1000 l 1
 700 1000 l 1
 600 1000 l 1
 600 800 l 1
 600 600 l 1
 500 600 l 1
 400 600 l 1
 400 400 l 1
 400 200 l 1
 300 200 l 1
 200 200 l 1
 200 100 l 1
 200 0 l 1
 100 0 l 1
 0 0 l 1
 0 100 l 1
 0 200 l 1
 100 200 l 1
 200 200 l 1
 200 400 l 1
 200 600 l 1
 300 600 l 1
 400 600 l 1
 400 800 l 1
 400 1000 l 1
 500 1000 l 1
 600 1000 l 1
 600 1100 l 1
EndSplineSet
Validated: 5
EndChar

StartChar: ampersand
Encoding: 38 38 6
Width: 1200
Flags: HW
LayerCount: 2
Back
Fore
SplineSet
200 1100 m 1
 200 1200 l 1
 400 1200 l 1
 600 1200 l 1
 600 1100 l 1
 600 1000 l 1
 700 1000 l 1
 800 1000 l 1
 800 900 l 1
 800 800 l 1
 700 800 l 1
 600 800 l 1
 600 600 l 1
 600 400 l 1
 700 400 l 1
 800 400 l 1
 800 500 l 1
 800 600 l 1
 900 600 l 1
 1000 600 l 1
 1000 500 l 1
 1000 400 l 1
 900 400 l 1
 800 400 l 1
 800 300 l 1
 800 200 l 1
 900 200 l 1
 1000 200 l 1
 1000 100 l 1
 1000 0 l 1
 900 0 l 1
 800 0 l 1
 800 100 l 1
 800 200 l 1
 700 200 l 1
 600 200 l 1
 600 100 l 1
 600 0 l 1
 400 0 l 1
 200 0 l 1
 200 100 l 1
 200 200 l 1
 100 200 l 1
 0 200 l 1
 0 400 l 1
 0 600 l 1
 100 600 l 1
 200 600 l 1
 200 700 l 1
 200 800 l 1
 100 800 l 1
 0 800 l 1
 0 900 l 1
 0 1000 l 1
 100 1000 l 1
 200 1000 l 1
 200 1100 l 1
600 900 m 1
 600 1000 l 1
 400 1000 l 1
 200 1000 l 1
 200 900 l 1
 200 800 l 1
 400 800 l 1
 600 800 l 1
 600 900 l 1
400 500 m 1
 400 600 l 1
 300 600 l 1
 200 600 l 1
 200 400 l 1
 200 200 l 1
 400 200 l 1
 600 200 l 1
 600 300 l 1
 600 400 l 1
 500 400 l 1
 400 400 l 1
 400 500 l 1
EndSplineSet
Validated: 5
EndChar

StartChar: quotesingle
Encoding: 39 39 7
Width: 400
Flags: HW
LayerCount: 2
Back
Fore
SplineSet
0 1000 m 1
 0 1200 l 1
 100 1200 l 1
 200 1200 l 1
 200 1000 l 1
 200 800 l 1
 100 800 l 1
 0 800 l 1
 0 1000 l 1
EndSplineSet
Validated: 1
EndChar

StartChar: parenleft
Encoding: 40 40 8
Width: 600
Flags: HW
LayerCount: 2
Back
Fore
SplineSet
200 1100 m 1
 200 1200 l 1
 300 1200 l 1
 400 1200 l 1
 400 1100 l 1
 400 1000 l 1
 300 1000 l 1
 200 1000 l 1
 200 600 l 1
 200 200 l 1
 300 200 l 1
 400 200 l 1
 400 100 l 1
 400 0 l 1
 300 0 l 1
 200 0 l 1
 200 100 l 1
 200 200 l 1
 100 200 l 1
 0 200 l 1
 0 600 l 1
 0 1000 l 1
 100 1000 l 1
 200 1000 l 1
 200 1100 l 1
EndSplineSet
Validated: 5
EndChar

StartChar: parenright
Encoding: 41 41 9
Width: 600
Flags: HW
LayerCount: 2
Back
Fore
SplineSet
0 1100 m 1
 0 1200 l 1
 100 1200 l 1
 200 1200 l 1
 200 1100 l 1
 200 1000 l 1
 300 1000 l 1
 400 1000 l 1
 400 600 l 1
 400 200 l 1
 300 200 l 1
 200 200 l 1
 200 100 l 1
 200 0 l 1
 100 0 l 1
 0 0 l 1
 0 100 l 1
 0 200 l 1
 100 200 l 1
 200 200 l 1
 200 600 l 1
 200 1000 l 1
 100 1000 l 1
 0 1000 l 1
 0 1100 l 1
EndSplineSet
Validated: 5
EndChar

StartChar: asterisk
Encoding: 42 42 10
Width: 1200
Flags: HW
LayerCount: 2
Back
Fore
SplineSet
0 1100 m 1
 0 1200 l 1
 100 1200 l 1
 200 1200 l 1
 200 1100 l 1
 200 1000 l 1
 300 1000 l 1
 400 1000 l 1
 400 1100 l 1
 400 1200 l 1
 500 1200 l 1
 600 1200 l 1
 600 1100 l 1
 600 1000 l 1
 700 1000 l 1
 800 1000 l 1
 800 1100 l 1
 800 1200 l 1
 900 1200 l 1
 1000 1200 l 1
 1000 1100 l 1
 1000 1000 l 1
 900 1000 l 1
 800 1000 l 1
 800 900 l 1
 800 800 l 1
 900 800 l 1
 1000 800 l 1
 1000 700 l 1
 1000 600 l 1
 900 600 l 1
 800 600 l 1
 800 500 l 1
 800 400 l 1
 900 400 l 1
 1000 400 l 1
 1000 300 l 1
 1000 200 l 1
 900 200 l 1
 800 200 l 1
 800 300 l 1
 800 400 l 1
 700 400 l 1
 600 400 l 1
 600 300 l 1
 600 200 l 1
 500 200 l 1
 400 200 l 1
 400 300 l 1
 400 400 l 1
 300 400 l 1
 200 400 l 1
 200 300 l 1
 200 200 l 1
 100 200 l 1
 0 200 l 1
 0 300 l 1
 0 400 l 1
 100 400 l 1
 200 400 l 1
 200 500 l 1
 200 600 l 1
 100 600 l 1
 0 600 l 1
 0 700 l 1
 0 800 l 1
 100 800 l 1
 200 800 l 1
 200 900 l 1
 200 1000 l 1
 100 1000 l 1
 0 1000 l 1
 0 1100 l 1
600 700 m 1
 600 800 l 1
 500 800 l 1
 400 800 l 1
 400 700 l 1
 400 600 l 1
 500 600 l 1
 600 600 l 1
 600 700 l 1
EndSplineSet
Validated: 5
EndChar

StartChar: plus
Encoding: 43 43 11
Width: 1200
Flags: HW
LayerCount: 2
Back
Fore
SplineSet
400 1000 m 1
 400 1200 l 1
 500 1200 l 1
 600 1200 l 1
 600 1000 l 1
 600 800 l 1
 800 800 l 1
 1000 800 l 1
 1000 700 l 1
 1000 600 l 1
 800 600 l 1
 600 600 l 1
 600 400 l 1
 600 200 l 1
 500 200 l 1
 400 200 l 1
 400 400 l 1
 400 600 l 1
 200 600 l 1
 0 600 l 1
 0 700 l 1
 0 800 l 1
 200 800 l 1
 400 800 l 1
 400 1000 l 1
EndSplineSet
Validated: 1
EndChar

StartChar: comma
Encoding: 44 44 12
Width: 600
Flags: HW
LayerCount: 2
Back
Fore
SplineSet
200 300 m 1
 200 400 l 1
 300 400 l 1
 400 400 l 1
 400 300 l 1
 400 200 l 1
 300 200 l 1
 200 200 l 1
 200 100 l 1
 200 0 l 1
 100 0 l 1
 0 0 l 1
 0 100 l 1
 0 200 l 1
 100 200 l 1
 200 200 l 1
 200 300 l 1
EndSplineSet
Validated: 5
EndChar

StartChar: hyphen
Encoding: 45 45 13
Width: 800
Flags: HW
LayerCount: 2
Back
Fore
SplineSet
0 700 m 1
 0 800 l 1
 300 800 l 1
 600 800 l 1
 600 700 l 1
 600 600 l 1
 300 600 l 1
 0 600 l 1
 0 700 l 1
EndSplineSet
Validated: 1
EndChar

StartChar: period
Encoding: 46 46 14
Width: 400
Flags: HW
LayerCount: 2
Back
Fore
SplineSet
0 100 m 1
 0 200 l 1
 100 200 l 1
 200 200 l 1
 200 100 l 1
 200 0 l 1
 100 0 l 1
 0 0 l 1
 0 100 l 1
EndSplineSet
Validated: 1
EndChar

StartChar: slash
Encoding: 47 47 15
Width: 1000
Flags: HW
LayerCount: 2
Back
Fore
SplineSet
600 1100 m 1
 600 1200 l 1
 700 1200 l 1
 800 1200 l 1
 800 1100 l 1
 800 1000 l 1
 700 1000 l 1
 600 1000 l 1
 600 800 l 1
 600 600 l 1
 500 600 l 1
 400 600 l 1
 400 400 l 1
 400 200 l 1
 300 200 l 1
 200 200 l 1
 200 100 l 1
 200 0 l 1
 100 0 l 1
 0 0 l 1
 0 100 l 1
 0 200 l 1
 100 200 l 1
 200 200 l 1
 200 400 l 1
 200 600 l 1
 300 600 l 1
 400 600 l 1
 400 800 l 1
 400 1000 l 1
 500 1000 l 1
 600 1000 l 1
 600 1100 l 1
EndSplineSet
Validated: 5
EndChar

StartChar: zero
Encoding: 48 48 16
Width: 1200
Flags: HW
LayerCount: 2
Back
Fore
SplineSet
400 700 m 1
 400 800 l 1
 500 800 l 1
 600 800 l 1
 600 700 l 1
 600 600 l 1
 500 600 l 1
 400 600 l 1
 400 700 l 1
200 1100 m 1
 200 1200 l 1
 400 1200 l 1
 600 1200 l 1
 600 1100 l 1
 600 1000 l 1
 700 1000 l 1
 800 1000 l 1
 800 900 l 1
 800 800 l 1
 900 800 l 1
 1000 800 l 1
 1000 500 l 1
 1000 200 l 1
 900 200 l 1
 800 200 l 1
 800 100 l 1
 800 0 l 1
 500 0 l 1
 200 0 l 1
 200 100 l 1
 200 200 l 1
 100 200 l 1
 0 200 l 1
 0 600 l 1
 0 1000 l 1
 100 1000 l 1
 200 1000 l 1
 200 1100 l 1
600 900 m 1
 600 1000 l 1
 400 1000 l 1
 200 1000 l 1
 200 800 l 1
 200 600 l 1
 300 600 l 1
 400 600 l 1
 400 500 l 1
 400 400 l 1
 300 400 l 1
 200 400 l 1
 200 300 l 1
 200 200 l 1
 500 200 l 1
 800 200 l 1
 800 500 l 1
 800 800 l 1
 700 800 l 1
 600 800 l 1
 600 900 l 1
EndSplineSet
Validated: 5
EndChar

StartChar: one
Encoding: 49 49 17
Width: 800
Flags: HW
LayerCount: 2
Back
Fore
SplineSet
200 1100 m 1
 200 1200 l 1
 300 1200 l 1
 400 1200 l 1
 400 700 l 1
 400 200 l 1
 500 200 l 1
 600 200 l 1
 600 100 l 1
 600 0 l 1
 300 0 l 1
 0 0 l 1
 0 100 l 1
 0 200 l 1
 100 200 l 1
 200 200 l 1
 200 500 l 1
 200 800 l 1
 100 800 l 1
 0 800 l 1
 0 900 l 1
 0 1000 l 1
 100 1000 l 1
 200 1000 l 1
 200 1100 l 1
EndSplineSet
Validated: 1
EndChar

StartChar: two
Encoding: 50 50 18
Width: 1200
Flags: HW
LayerCount: 2
Back
Fore
SplineSet
200 1100 m 1
 200 1200 l 1
 400 1200 l 1
 600 1200 l 1
 600 1100 l 1
 600 1000 l 1
 700 1000 l 1
 800 1000 l 1
 800 800 l 1
 800 600 l 1
 700 600 l 1
 600 600 l 1
 600 500 l 1
 600 400 l 1
 500 400 l 1
 400 400 l 1
 400 300 l 1
 400 200 l 1
 600 200 l 1
 800 200 l 1
 800 300 l 1
 800 400 l 1
 900 400 l 1
 1000 400 l 1
 1000 300 l 1
 1000 200 l 1
 900 200 l 1
 800 200 l 1
 800 100 l 1
 800 0 l 1
 400 0 l 1
 0 0 l 1
 0 100 l 1
 0 200 l 1
 100 200 l 1
 200 200 l 1
 200 300 l 1
 200 400 l 1
 300 400 l 1
 400 400 l 1
 400 500 l 1
 400 600 l 1
 500 600 l 1
 600 600 l 1
 600 800 l 1
 600 1000 l 1
 400 1000 l 1
 200 1000 l 1
 200 900 l 1
 200 800 l 1
 100 800 l 1
 0 800 l 1
 0 900 l 1
 0 1000 l 1
 100 1000 l 1
 200 1000 l 1
 200 1100 l 1
EndSplineSet
Validated: 5
EndChar

StartChar: three
Encoding: 51 51 19
Width: 1200
Flags: HW
LayerCount: 2
Back
Fore
SplineSet
200 1100 m 1
 200 1200 l 1
 400 1200 l 1
 600 1200 l 1
 600 1100 l 1
 600 1000 l 1
 700 1000 l 1
 800 1000 l 1
 800 900 l 1
 800 800 l 1
 700 800 l 1
 600 800 l 1
 600 700 l 1
 600 600 l 1
 700 600 l 1
 800 600 l 1
 800 500 l 1
 800 400 l 1
 900 400 l 1
 1000 400 l 1
 1000 300 l 1
 1000 200 l 1
 900 200 l 1
 800 200 l 1
 800 100 l 1
 800 0 l 1
 500 0 l 1
 200 0 l 1
 200 100 l 1
 200 200 l 1
 100 200 l 1
 0 200 l 1
 0 300 l 1
 0 400 l 1
 100 400 l 1
 200 400 l 1
 200 300 l 1
 200 200 l 1
 500 200 l 1
 800 200 l 1
 800 300 l 1
 800 400 l 1
 700 400 l 1
 600 400 l 1
 600 500 l 1
 600 600 l 1
 500 600 l 1
 400 600 l 1
 400 700 l 1
 400 800 l 1
 500 800 l 1
 600 800 l 1
 600 900 l 1
 600 1000 l 1
 400 1000 l 1
 200 1000 l 1
 200 900 l 1
 200 800 l 1
 100 800 l 1
 0 800 l 1
 0 900 l 1
 0 1000 l 1
 100 1000 l 1
 200 1000 l 1
 200 1100 l 1
EndSplineSet
Validated: 5
EndChar

StartChar: four
Encoding: 52 52 20
Width: 1200
Flags: HW
LayerCount: 2
Back
Fore
SplineSet
600 1100 m 1
 600 1200 l 1
 700 1200 l 1
 800 1200 l 1
 800 800 l 1
 800 400 l 1
 900 400 l 1
 1000 400 l 1
 1000 300 l 1
 1000 200 l 1
 900 200 l 1
 800 200 l 1
 800 100 l 1
 800 0 l 1
 700 0 l 1
 600 0 l 1
 600 100 l 1
 600 200 l 1
 300 200 l 1
 0 200 l 1
 0 400 l 1
 0 600 l 1
 100 600 l 1
 200 600 l 1
 200 700 l 1
 200 800 l 1
 300 800 l 1
 400 800 l 1
 400 900 l 1
 400 1000 l 1
 500 1000 l 1
 600 1000 l 1
 600 1100 l 1
600 600 m 1
 600 800 l 1
 500 800 l 1
 400 800 l 1
 400 700 l 1
 400 600 l 1
 300 600 l 1
 200 600 l 1
 200 500 l 1
 200 400 l 1
 400 400 l 1
 600 400 l 1
 600 600 l 1
EndSplineSet
Validated: 5
EndChar

StartChar: five
Encoding: 53 53 21
Width: 1200
Flags: HW
LayerCount: 2
Back
Fore
SplineSet
0 900 m 1
 0 1200 l 1
 400 1200 l 1
 800 1200 l 1
 800 1100 l 1
 800 1000 l 1
 500 1000 l 1
 200 1000 l 1
 200 900 l 1
 200 800 l 1
 400 800 l 1
 600 800 l 1
 600 700 l 1
 600 600 l 1
 700 600 l 1
 800 600 l 1
 800 500 l 1
 800 400 l 1
 900 400 l 1
 1000 400 l 1
 1000 300 l 1
 1000 200 l 1
 900 200 l 1
 800 200 l 1
 800 100 l 1
 800 0 l 1
 500 0 l 1
 200 0 l 1
 200 100 l 1
 200 200 l 1
 100 200 l 1
 0 200 l 1
 0 300 l 1
 0 400 l 1
 100 400 l 1
 200 400 l 1
 200 300 l 1
 200 200 l 1
 500 200 l 1
 800 200 l 1
 800 300 l 1
 800 400 l 1
 700 400 l 1
 600 400 l 1
 600 500 l 1
 600 600 l 1
 300 600 l 1
 0 600 l 1
 0 900 l 1
EndSplineSet
Validated: 5
EndChar

StartChar: six
Encoding: 54 54 22
Width: 1200
Flags: HW
LayerCount: 2
Back
Fore
SplineSet
200 1100 m 1
 200 1200 l 1
 500 1200 l 1
 800 1200 l 1
 800 1100 l 1
 800 1000 l 1
 500 1000 l 1
 200 1000 l 1
 200 800 l 1
 200 600 l 1
 300 600 l 1
 400 600 l 1
 400 700 l 1
 400 800 l 1
 600 800 l 1
 800 800 l 1
 800 700 l 1
 800 600 l 1
 900 600 l 1
 1000 600 l 1
 1000 400 l 1
 1000 200 l 1
 900 200 l 1
 800 200 l 1
 800 100 l 1
 800 0 l 1
 500 0 l 1
 200 0 l 1
 200 100 l 1
 200 200 l 1
 100 200 l 1
 0 200 l 1
 0 600 l 1
 0 1000 l 1
 100 1000 l 1
 200 1000 l 1
 200 1100 l 1
800 400 m 1
 800 600 l 1
 600 600 l 1
 400 600 l 1
 400 500 l 1
 400 400 l 1
 300 400 l 1
 200 400 l 1
 200 300 l 1
 200 200 l 1
 500 200 l 1
 800 200 l 1
 800 400 l 1
EndSplineSet
Validated: 5
EndChar

StartChar: seven
Encoding: 55 55 23
Width: 1000
Flags: HW
LayerCount: 2
Back
Fore
SplineSet
0 1100 m 1
 0 1200 l 1
 400 1200 l 1
 800 1200 l 1
 800 1000 l 1
 800 800 l 1
 700 800 l 1
 600 800 l 1
 600 400 l 1
 600 0 l 1
 500 0 l 1
 400 0 l 1
 400 300 l 1
 400 600 l 1
 300 600 l 1
 200 600 l 1
 200 700 l 1
 200 800 l 1
 400 800 l 1
 600 800 l 1
 600 900 l 1
 600 1000 l 1
 300 1000 l 1
 0 1000 l 1
 0 1100 l 1
EndSplineSet
Validated: 5
EndChar

StartChar: eight
Encoding: 56 56 24
Width: 1200
Flags: HW
LayerCount: 2
Back
Fore
SplineSet
200 1100 m 1
 200 1200 l 1
 400 1200 l 1
 600 1200 l 1
 600 1100 l 1
 600 1000 l 1
 700 1000 l 1
 800 1000 l 1
 800 900 l 1
 800 800 l 1
 700 800 l 1
 600 800 l 1
 600 700 l 1
 600 600 l 1
 700 600 l 1
 800 600 l 1
 800 500 l 1
 800 400 l 1
 900 400 l 1
 1000 400 l 1
 1000 300 l 1
 1000 200 l 1
 900 200 l 1
 800 200 l 1
 800 100 l 1
 800 0 l 1
 500 0 l 1
 200 0 l 1
 200 100 l 1
 200 200 l 1
 100 200 l 1
 0 200 l 1
 0 400 l 1
 0 600 l 1
 100 600 l 1
 200 600 l 1
 200 700 l 1
 200 800 l 1
 100 800 l 1
 0 800 l 1
 0 900 l 1
 0 1000 l 1
 100 1000 l 1
 200 1000 l 1
 200 1100 l 1
600 900 m 1
 600 1000 l 1
 400 1000 l 1
 200 1000 l 1
 200 900 l 1
 200 800 l 1
 400 800 l 1
 600 800 l 1
 600 900 l 1
600 500 m 1
 600 600 l 1
 400 600 l 1
 200 600 l 1
 200 400 l 1
 200 200 l 1
 500 200 l 1
 800 200 l 1
 800 300 l 1
 800 400 l 1
 700 400 l 1
 600 400 l 1
 600 500 l 1
EndSplineSet
Validated: 5
EndChar

StartChar: nine
Encoding: 57 57 25
Width: 1200
Flags: HW
LayerCount: 2
Back
Fore
SplineSet
200 1100 m 1
 200 1200 l 1
 400 1200 l 1
 600 1200 l 1
 600 1100 l 1
 600 1000 l 1
 700 1000 l 1
 800 1000 l 1
 800 900 l 1
 800 800 l 1
 900 800 l 1
 1000 800 l 1
 1000 500 l 1
 1000 200 l 1
 900 200 l 1
 800 200 l 1
 800 100 l 1
 800 0 l 1
 500 0 l 1
 200 0 l 1
 200 100 l 1
 200 200 l 1
 100 200 l 1
 0 200 l 1
 0 300 l 1
 0 400 l 1
 100 400 l 1
 200 400 l 1
 200 300 l 1
 200 200 l 1
 500 200 l 1
 800 200 l 1
 800 300 l 1
 800 400 l 1
 600 400 l 1
 400 400 l 1
 400 500 l 1
 400 600 l 1
 300 600 l 1
 200 600 l 1
 200 700 l 1
 200 800 l 1
 100 800 l 1
 0 800 l 1
 0 900 l 1
 0 1000 l 1
 100 1000 l 1
 200 1000 l 1
 200 1100 l 1
600 900 m 1
 600 1000 l 1
 400 1000 l 1
 200 1000 l 1
 200 900 l 1
 200 800 l 1
 300 800 l 1
 400 800 l 1
 400 700 l 1
 400 600 l 1
 600 600 l 1
 800 600 l 1
 800 700 l 1
 800 800 l 1
 700 800 l 1
 600 800 l 1
 600 900 l 1
EndSplineSet
Validated: 5
EndChar

StartChar: colon
Encoding: 58 58 26
Width: 400
Flags: HW
LayerCount: 2
Back
Fore
SplineSet
0 300 m 1
 0 400 l 1
 100 400 l 1
 200 400 l 1
 200 300 l 1
 200 200 l 1
 100 200 l 1
 0 200 l 1
 0 300 l 1
0 1100 m 1
 0 1200 l 1
 100 1200 l 1
 200 1200 l 1
 200 1100 l 1
 200 1000 l 1
 100 1000 l 1
 0 1000 l 1
 0 1100 l 1
EndSplineSet
Validated: 1
EndChar

StartChar: semicolon
Encoding: 59 59 27
Width: 600
Flags: HW
LayerCount: 2
Back
Fore
SplineSet
200 300 m 1
 200 400 l 1
 300 400 l 1
 400 400 l 1
 400 300 l 1
 400 200 l 1
 300 200 l 1
 200 200 l 1
 200 100 l 1
 200 0 l 1
 100 0 l 1
 0 0 l 1
 0 100 l 1
 0 200 l 1
 100 200 l 1
 200 200 l 1
 200 300 l 1
200 1100 m 1
 200 1200 l 1
 300 1200 l 1
 400 1200 l 1
 400 1100 l 1
 400 1000 l 1
 300 1000 l 1
 200 1000 l 1
 200 1100 l 1
EndSplineSet
Validated: 5
EndChar

StartChar: less
Encoding: 60 60 28
Width: 800
Flags: HW
LayerCount: 2
Back
Fore
SplineSet
400 1100 m 1
 400 1200 l 1
 500 1200 l 1
 600 1200 l 1
 600 1100 l 1
 600 1000 l 1
 500 1000 l 1
 400 1000 l 1
 400 900 l 1
 400 800 l 1
 300 800 l 1
 200 800 l 1
 200 700 l 1
 200 600 l 1
 300 600 l 1
 400 600 l 1
 400 500 l 1
 400 400 l 1
 500 400 l 1
 600 400 l 1
 600 300 l 1
 600 200 l 1
 500 200 l 1
 400 200 l 1
 400 300 l 1
 400 400 l 1
 300 400 l 1
 200 400 l 1
 200 500 l 1
 200 600 l 1
 100 600 l 1
 0 600 l 1
 0 700 l 1
 0 800 l 1
 100 800 l 1
 200 800 l 1
 200 900 l 1
 200 1000 l 1
 300 1000 l 1
 400 1000 l 1
 400 1100 l 1
EndSplineSet
Validated: 5
EndChar

StartChar: equal
Encoding: 61 61 29
Width: 1200
Flags: HW
LayerCount: 2
Back
Fore
SplineSet
200 300 m 1
 200 400 l 1
 600 400 l 1
 1000 400 l 1
 1000 300 l 1
 1000 200 l 1
 600 200 l 1
 200 200 l 1
 200 300 l 1
0 700 m 1
 0 800 l 1
 400 800 l 1
 800 800 l 1
 800 700 l 1
 800 600 l 1
 400 600 l 1
 0 600 l 1
 0 700 l 1
EndSplineSet
Validated: 1
EndChar

StartChar: greater
Encoding: 62 62 30
Width: 800
Flags: HW
LayerCount: 2
Back
Fore
SplineSet
0 1100 m 1
 0 1200 l 1
 100 1200 l 1
 200 1200 l 1
 200 1100 l 1
 200 1000 l 1
 300 1000 l 1
 400 1000 l 1
 400 900 l 1
 400 800 l 1
 500 800 l 1
 600 800 l 1
 600 700 l 1
 600 600 l 1
 500 600 l 1
 400 600 l 1
 400 500 l 1
 400 400 l 1
 300 400 l 1
 200 400 l 1
 200 300 l 1
 200 200 l 1
 100 200 l 1
 0 200 l 1
 0 300 l 1
 0 400 l 1
 100 400 l 1
 200 400 l 1
 200 500 l 1
 200 600 l 1
 300 600 l 1
 400 600 l 1
 400 700 l 1
 400 800 l 1
 300 800 l 1
 200 800 l 1
 200 900 l 1
 200 1000 l 1
 100 1000 l 1
 0 1000 l 1
 0 1100 l 1
EndSplineSet
Validated: 5
EndChar

StartChar: question
Encoding: 63 63 31
Width: 1200
Flags: HW
LayerCount: 2
Back
Fore
SplineSet
600 100 m 1
 600 200 l 1
 700 200 l 1
 800 200 l 1
 800 100 l 1
 800 0 l 1
 700 0 l 1
 600 0 l 1
 600 100 l 1
200 1100 m 1
 200 1200 l 1
 500 1200 l 1
 800 1200 l 1
 800 1100 l 1
 800 1000 l 1
 900 1000 l 1
 1000 1000 l 1
 1000 900 l 1
 1000 800 l 1
 900 800 l 1
 800 800 l 1
 800 700 l 1
 800 600 l 1
 700 600 l 1
 600 600 l 1
 600 500 l 1
 600 400 l 1
 500 400 l 1
 400 400 l 1
 400 500 l 1
 400 600 l 1
 500 600 l 1
 600 600 l 1
 600 700 l 1
 600 800 l 1
 700 800 l 1
 800 800 l 1
 800 900 l 1
 800 1000 l 1
 500 1000 l 1
 200 1000 l 1
 200 900 l 1
 200 800 l 1
 100 800 l 1
 0 800 l 1
 0 900 l 1
 0 1000 l 1
 100 1000 l 1
 200 1000 l 1
 200 1100 l 1
EndSplineSet
Validated: 5
EndChar

StartChar: at
Encoding: 64 64 32
Width: 1200
Flags: HW
LayerCount: 2
Back
Fore
SplineSet
200 1100 m 1
 200 1200 l 1
 400 1200 l 1
 600 1200 l 1
 600 1100 l 1
 600 1000 l 1
 700 1000 l 1
 800 1000 l 1
 800 900 l 1
 800 800 l 1
 900 800 l 1
 1000 800 l 1
 1000 700 l 1
 1000 600 l 1
 900 600 l 1
 800 600 l 1
 800 500 l 1
 800 400 l 1
 600 400 l 1
 400 400 l 1
 400 600 l 1
 400 800 l 1
 500 800 l 1
 600 800 l 1
 600 900 l 1
 600 1000 l 1
 400 1000 l 1
 200 1000 l 1
 200 600 l 1
 200 200 l 1
 600 200 l 1
 1000 200 l 1
 1000 100 l 1
 1000 0 l 1
 600 0 l 1
 200 0 l 1
 200 100 l 1
 200 200 l 1
 100 200 l 1
 0 200 l 1
 0 600 l 1
 0 1000 l 1
 100 1000 l 1
 200 1000 l 1
 200 1100 l 1
EndSplineSet
Validated: 5
EndChar

StartChar: A
Encoding: 65 65 33
Width: 1200
Flags: HW
LayerCount: 2
Back
Fore
SplineSet
0 600 m 1
 0 1200 l 1
 200 1200 l 1
 400 1200 l 1
 400 1100 l 1
 400 1000 l 1
 500 1000 l 1
 600 1000 l 1
 600 900 l 1
 600 800 l 1
 700 800 l 1
 800 800 l 1
 800 600 l 1
 800 400 l 1
 900 400 l 1
 1000 400 l 1
 1000 200 l 1
 1000 0 l 1
 900 0 l 1
 800 0 l 1
 800 200 l 1
 800 400 l 1
 500 400 l 1
 200 400 l 1
 200 200 l 1
 200 0 l 1
 100 0 l 1
 0 0 l 1
 0 600 l 1
400 900 m 1
 400 1000 l 1
 300 1000 l 1
 200 1000 l 1
 200 800 l 1
 200 600 l 1
 400 600 l 1
 600 600 l 1
 600 700 l 1
 600 800 l 1
 500 800 l 1
 400 800 l 1
 400 900 l 1
EndSplineSet
Validated: 5
EndChar

StartChar: B
Encoding: 66 66 34
Width: 1200
Flags: HW
LayerCount: 2
Back
Fore
SplineSet
0 600 m 1
 0 1200 l 1
 300 1200 l 1
 600 1200 l 1
 600 1100 l 1
 600 1000 l 1
 700 1000 l 1
 800 1000 l 1
 800 900 l 1
 800 800 l 1
 700 800 l 1
 600 800 l 1
 600 700 l 1
 600 600 l 1
 700 600 l 1
 800 600 l 1
 800 500 l 1
 800 400 l 1
 900 400 l 1
 1000 400 l 1
 1000 300 l 1
 1000 200 l 1
 900 200 l 1
 800 200 l 1
 800 100 l 1
 800 0 l 1
 400 0 l 1
 0 0 l 1
 0 600 l 1
600 900 m 1
 600 1000 l 1
 400 1000 l 1
 200 1000 l 1
 200 900 l 1
 200 800 l 1
 400 800 l 1
 600 800 l 1
 600 900 l 1
600 500 m 1
 600 600 l 1
 400 600 l 1
 200 600 l 1
 200 400 l 1
 200 200 l 1
 500 200 l 1
 800 200 l 1
 800 300 l 1
 800 400 l 1
 700 400 l 1
 600 400 l 1
 600 500 l 1
EndSplineSet
Validated: 5
EndChar

StartChar: C
Encoding: 67 67 35
Width: 1200
Flags: HW
LayerCount: 2
Back
Fore
SplineSet
200 1100 m 1
 200 1200 l 1
 400 1200 l 1
 600 1200 l 1
 600 1100 l 1
 600 1000 l 1
 700 1000 l 1
 800 1000 l 1
 800 900 l 1
 800 800 l 1
 700 800 l 1
 600 800 l 1
 600 900 l 1
 600 1000 l 1
 400 1000 l 1
 200 1000 l 1
 200 600 l 1
 200 200 l 1
 500 200 l 1
 800 200 l 1
 800 300 l 1
 800 400 l 1
 900 400 l 1
 1000 400 l 1
 1000 300 l 1
 1000 200 l 1
 900 200 l 1
 800 200 l 1
 800 100 l 1
 800 0 l 1
 500 0 l 1
 200 0 l 1
 200 100 l 1
 200 200 l 1
 100 200 l 1
 0 200 l 1
 0 600 l 1
 0 1000 l 1
 100 1000 l 1
 200 1000 l 1
 200 1100 l 1
EndSplineSet
Validated: 5
EndChar

StartChar: D
Encoding: 68 68 36
Width: 1200
Flags: HW
LayerCount: 2
Back
Fore
SplineSet
0 600 m 1
 0 1200 l 1
 300 1200 l 1
 600 1200 l 1
 600 1100 l 1
 600 1000 l 1
 700 1000 l 1
 800 1000 l 1
 800 900 l 1
 800 800 l 1
 900 800 l 1
 1000 800 l 1
 1000 500 l 1
 1000 200 l 1
 900 200 l 1
 800 200 l 1
 800 100 l 1
 800 0 l 1
 400 0 l 1
 0 0 l 1
 0 600 l 1
600 900 m 1
 600 1000 l 1
 400 1000 l 1
 200 1000 l 1
 200 600 l 1
 200 200 l 1
 500 200 l 1
 800 200 l 1
 800 500 l 1
 800 800 l 1
 700 800 l 1
 600 800 l 1
 600 900 l 1
EndSplineSet
Validated: 5
EndChar

StartChar: E
Encoding: 69 69 37
Width: 1200
Flags: HW
LayerCount: 2
Back
Fore
SplineSet
0 600 m 1
 0 1200 l 1
 400 1200 l 1
 800 1200 l 1
 800 1100 l 1
 800 1000 l 1
 500 1000 l 1
 200 1000 l 1
 200 900 l 1
 200 800 l 1
 300 800 l 1
 400 800 l 1
 400 700 l 1
 400 600 l 1
 300 600 l 1
 200 600 l 1
 200 400 l 1
 200 200 l 1
 500 200 l 1
 800 200 l 1
 800 300 l 1
 800 400 l 1
 900 400 l 1
 1000 400 l 1
 1000 300 l 1
 1000 200 l 1
 900 200 l 1
 800 200 l 1
 800 100 l 1
 800 0 l 1
 400 0 l 1
 0 0 l 1
 0 600 l 1
EndSplineSet
Validated: 5
EndChar

StartChar: F
Encoding: 70 70 38
Width: 1000
Flags: HW
LayerCount: 2
Back
Fore
SplineSet
0 600 m 1
 0 1200 l 1
 400 1200 l 1
 800 1200 l 1
 800 1100 l 1
 800 1000 l 1
 500 1000 l 1
 200 1000 l 1
 200 900 l 1
 200 800 l 1
 300 800 l 1
 400 800 l 1
 400 700 l 1
 400 600 l 1
 300 600 l 1
 200 600 l 1
 200 300 l 1
 200 0 l 1
 100 0 l 1
 0 0 l 1
 0 600 l 1
EndSplineSet
Validated: 1
EndChar

StartChar: G
Encoding: 71 71 39
Width: 1200
Flags: HW
LayerCount: 2
Back
Fore
SplineSet
200 1100 m 1
 200 1200 l 1
 400 1200 l 1
 600 1200 l 1
 600 1100 l 1
 600 1000 l 1
 700 1000 l 1
 800 1000 l 1
 800 900 l 1
 800 800 l 1
 700 800 l 1
 600 800 l 1
 600 900 l 1
 600 1000 l 1
 400 1000 l 1
 200 1000 l 1
 200 600 l 1
 200 200 l 1
 500 200 l 1
 800 200 l 1
 800 300 l 1
 800 400 l 1
 600 400 l 1
 400 400 l 1
 400 500 l 1
 400 600 l 1
 700 600 l 1
 1000 600 l 1
 1000 400 l 1
 1000 200 l 1
 900 200 l 1
 800 200 l 1
 800 100 l 1
 800 0 l 1
 500 0 l 1
 200 0 l 1
 200 100 l 1
 200 200 l 1
 100 200 l 1
 0 200 l 1
 0 600 l 1
 0 1000 l 1
 100 1000 l 1
 200 1000 l 1
 200 1100 l 1
EndSplineSet
Validated: 5
EndChar

StartChar: H
Encoding: 72 72 40
Width: 1200
Flags: HW
LayerCount: 2
Back
Fore
SplineSet
0 600 m 1
 0 1200 l 1
 100 1200 l 1
 200 1200 l 1
 200 1000 l 1
 200 800 l 1
 400 800 l 1
 600 800 l 1
 600 1000 l 1
 600 1200 l 1
 700 1200 l 1
 800 1200 l 1
 800 1000 l 1
 800 800 l 1
 900 800 l 1
 1000 800 l 1
 1000 400 l 1
 1000 0 l 1
 900 0 l 1
 800 0 l 1
 800 300 l 1
 800 600 l 1
 500 600 l 1
 200 600 l 1
 200 300 l 1
 200 0 l 1
 100 0 l 1
 0 0 l 1
 0 600 l 1
EndSplineSet
Validated: 1
EndChar

StartChar: I
Encoding: 73 73 41
Width: 1000
Flags: HW
LayerCount: 2
Back
Fore
SplineSet
0 1100 m 1
 0 1200 l 1
 300 1200 l 1
 600 1200 l 1
 600 1100 l 1
 600 1000 l 1
 500 1000 l 1
 400 1000 l 1
 400 800 l 1
 400 600 l 1
 500 600 l 1
 600 600 l 1
 600 400 l 1
 600 200 l 1
 700 200 l 1
 800 200 l 1
 800 100 l 1
 800 0 l 1
 500 0 l 1
 200 0 l 1
 200 100 l 1
 200 200 l 1
 300 200 l 1
 400 200 l 1
 400 400 l 1
 400 600 l 1
 300 600 l 1
 200 600 l 1
 200 800 l 1
 200 1000 l 1
 100 1000 l 1
 0 1000 l 1
 0 1100 l 1
EndSplineSet
Validated: 5
EndChar

StartChar: J
Encoding: 74 74 42
Width: 1200
Flags: HW
LayerCount: 2
Back
Fore
SplineSet
200 1100 m 1
 200 1200 l 1
 500 1200 l 1
 800 1200 l 1
 800 1100 l 1
 800 1000 l 1
 700 1000 l 1
 600 1000 l 1
 600 900 l 1
 600 800 l 1
 700 800 l 1
 800 800 l 1
 800 700 l 1
 800 600 l 1
 900 600 l 1
 1000 600 l 1
 1000 400 l 1
 1000 200 l 1
 900 200 l 1
 800 200 l 1
 800 100 l 1
 800 0 l 1
 500 0 l 1
 200 0 l 1
 200 100 l 1
 200 200 l 1
 100 200 l 1
 0 200 l 1
 0 300 l 1
 0 400 l 1
 100 400 l 1
 200 400 l 1
 200 300 l 1
 200 200 l 1
 500 200 l 1
 800 200 l 1
 800 400 l 1
 800 600 l 1
 700 600 l 1
 600 600 l 1
 600 700 l 1
 600 800 l 1
 500 800 l 1
 400 800 l 1
 400 900 l 1
 400 1000 l 1
 300 1000 l 1
 200 1000 l 1
 200 1100 l 1
EndSplineSet
Validated: 5
EndChar

StartChar: K
Encoding: 75 75 43
Width: 1200
Flags: HW
LayerCount: 2
Back
Fore
SplineSet
0 600 m 1
 0 1200 l 1
 100 1200 l 1
 200 1200 l 1
 200 1000 l 1
 200 800 l 1
 300 800 l 1
 400 800 l 1
 400 900 l 1
 400 1000 l 1
 500 1000 l 1
 600 1000 l 1
 600 1100 l 1
 600 1200 l 1
 700 1200 l 1
 800 1200 l 1
 800 1100 l 1
 800 1000 l 1
 700 1000 l 1
 600 1000 l 1
 600 800 l 1
 600 600 l 1
 700 600 l 1
 800 600 l 1
 800 500 l 1
 800 400 l 1
 900 400 l 1
 1000 400 l 1
 1000 200 l 1
 1000 0 l 1
 900 0 l 1
 800 0 l 1
 800 200 l 1
 800 400 l 1
 700 400 l 1
 600 400 l 1
 600 500 l 1
 600 600 l 1
 400 600 l 1
 200 600 l 1
 200 300 l 1
 200 0 l 1
 100 0 l 1
 0 0 l 1
 0 600 l 1
EndSplineSet
Validated: 5
EndChar

StartChar: L
Encoding: 76 76 44
Width: 1200
Flags: HW
LayerCount: 2
Back
Fore
SplineSet
0 600 m 1
 0 1200 l 1
 100 1200 l 1
 200 1200 l 1
 200 700 l 1
 200 200 l 1
 500 200 l 1
 800 200 l 1
 800 300 l 1
 800 400 l 1
 900 400 l 1
 1000 400 l 1
 1000 300 l 1
 1000 200 l 1
 900 200 l 1
 800 200 l 1
 800 100 l 1
 800 0 l 1
 400 0 l 1
 0 0 l 1
 0 600 l 1
EndSplineSet
Validated: 5
EndChar

StartChar: M
Encoding: 77 77 45
Width: 1200
Flags: HW
LayerCount: 2
Back
Fore
SplineSet
0 600 m 1
 0 1200 l 1
 100 1200 l 1
 200 1200 l 1
 200 1100 l 1
 200 1000 l 1
 300 1000 l 1
 400 1000 l 1
 400 900 l 1
 400 800 l 1
 500 800 l 1
 600 800 l 1
 600 1000 l 1
 600 1200 l 1
 700 1200 l 1
 800 1200 l 1
 800 1000 l 1
 800 800 l 1
 900 800 l 1
 1000 800 l 1
 1000 400 l 1
 1000 0 l 1
 900 0 l 1
 800 0 l 1
 800 400 l 1
 800 800 l 1
 700 800 l 1
 600 800 l 1
 600 700 l 1
 600 600 l 1
 500 600 l 1
 400 600 l 1
 400 700 l 1
 400 800 l 1
 300 800 l 1
 200 800 l 1
 200 400 l 1
 200 0 l 1
 100 0 l 1
 0 0 l 1
 0 600 l 1
EndSplineSet
Validated: 5
EndChar

StartChar: N
Encoding: 78 78 46
Width: 1200
Flags: HW
LayerCount: 2
Back
Fore
SplineSet
0 600 m 1
 0 1200 l 1
 100 1200 l 1
 200 1200 l 1
 200 1000 l 1
 200 800 l 1
 300 800 l 1
 400 800 l 1
 400 700 l 1
 400 600 l 1
 500 600 l 1
 600 600 l 1
 600 500 l 1
 600 400 l 1
 700 400 l 1
 800 400 l 1
 800 600 l 1
 800 800 l 1
 700 800 l 1
 600 800 l 1
 600 1000 l 1
 600 1200 l 1
 700 1200 l 1
 800 1200 l 1
 800 1000 l 1
 800 800 l 1
 900 800 l 1
 1000 800 l 1
 1000 400 l 1
 1000 0 l 1
 900 0 l 1
 800 0 l 1
 800 100 l 1
 800 200 l 1
 700 200 l 1
 600 200 l 1
 600 300 l 1
 600 400 l 1
 500 400 l 1
 400 400 l 1
 400 500 l 1
 400 600 l 1
 300 600 l 1
 200 600 l 1
 200 300 l 1
 200 0 l 1
 100 0 l 1
 0 0 l 1
 0 600 l 1
EndSplineSet
Validated: 5
EndChar

StartChar: O
Encoding: 79 79 47
Width: 1200
Flags: HW
LayerCount: 2
Back
Fore
SplineSet
200 1100 m 1
 200 1200 l 1
 400 1200 l 1
 600 1200 l 1
 600 1100 l 1
 600 1000 l 1
 700 1000 l 1
 800 1000 l 1
 800 900 l 1
 800 800 l 1
 900 800 l 1
 1000 800 l 1
 1000 500 l 1
 1000 200 l 1
 900 200 l 1
 800 200 l 1
 800 100 l 1
 800 0 l 1
 500 0 l 1
 200 0 l 1
 200 100 l 1
 200 200 l 1
 100 200 l 1
 0 200 l 1
 0 600 l 1
 0 1000 l 1
 100 1000 l 1
 200 1000 l 1
 200 1100 l 1
600 900 m 1
 600 1000 l 1
 400 1000 l 1
 200 1000 l 1
 200 600 l 1
 200 200 l 1
 500 200 l 1
 800 200 l 1
 800 500 l 1
 800 800 l 1
 700 800 l 1
 600 800 l 1
 600 900 l 1
EndSplineSet
Validated: 5
EndChar

StartChar: P
Encoding: 80 80 48
Width: 1000
Flags: HW
LayerCount: 2
Back
Fore
SplineSet
0 600 m 1
 0 1200 l 1
 300 1200 l 1
 600 1200 l 1
 600 1100 l 1
 600 1000 l 1
 700 1000 l 1
 800 1000 l 1
 800 900 l 1
 800 800 l 1
 700 800 l 1
 600 800 l 1
 600 700 l 1
 600 600 l 1
 500 600 l 1
 400 600 l 1
 400 500 l 1
 400 400 l 1
 300 400 l 1
 200 400 l 1
 200 200 l 1
 200 0 l 1
 100 0 l 1
 0 0 l 1
 0 600 l 1
600 900 m 1
 600 1000 l 1
 400 1000 l 1
 200 1000 l 1
 200 800 l 1
 200 600 l 1
 300 600 l 1
 400 600 l 1
 400 700 l 1
 400 800 l 1
 500 800 l 1
 600 800 l 1
 600 900 l 1
EndSplineSet
Validated: 5
EndChar

StartChar: Q
Encoding: 81 81 49
Width: 1200
Flags: HW
LayerCount: 2
Back
Fore
SplineSet
400 500 m 1
 400 600 l 1
 500 600 l 1
 600 600 l 1
 600 500 l 1
 600 400 l 1
 500 400 l 1
 400 400 l 1
 400 500 l 1
200 1100 m 1
 200 1200 l 1
 400 1200 l 1
 600 1200 l 1
 600 1100 l 1
 600 1000 l 1
 700 1000 l 1
 800 1000 l 1
 800 900 l 1
 800 800 l 1
 900 800 l 1
 1000 800 l 1
 1000 600 l 1
 1000 400 l 1
 900 400 l 1
 800 400 l 1
 800 300 l 1
 800 200 l 1
 900 200 l 1
 1000 200 l 1
 1000 100 l 1
 1000 0 l 1
 900 0 l 1
 800 0 l 1
 800 100 l 1
 800 200 l 1
 700 200 l 1
 600 200 l 1
 600 100 l 1
 600 0 l 1
 400 0 l 1
 200 0 l 1
 200 100 l 1
 200 200 l 1
 100 200 l 1
 0 200 l 1
 0 600 l 1
 0 1000 l 1
 100 1000 l 1
 200 1000 l 1
 200 1100 l 1
600 900 m 1
 600 1000 l 1
 400 1000 l 1
 200 1000 l 1
 200 600 l 1
 200 200 l 1
 400 200 l 1
 600 200 l 1
 600 300 l 1
 600 400 l 1
 700 400 l 1
 800 400 l 1
 800 600 l 1
 800 800 l 1
 700 800 l 1
 600 800 l 1
 600 900 l 1
EndSplineSet
Validated: 5
EndChar

StartChar: R
Encoding: 82 82 50
Width: 1200
Flags: HW
LayerCount: 2
Back
Fore
SplineSet
0 600 m 1
 0 1200 l 1
 300 1200 l 1
 600 1200 l 1
 600 1100 l 1
 600 1000 l 1
 700 1000 l 1
 800 1000 l 1
 800 900 l 1
 800 800 l 1
 700 800 l 1
 600 800 l 1
 600 700 l 1
 600 600 l 1
 700 600 l 1
 800 600 l 1
 800 500 l 1
 800 400 l 1
 900 400 l 1
 1000 400 l 1
 1000 200 l 1
 1000 0 l 1
 900 0 l 1
 800 0 l 1
 800 200 l 1
 800 400 l 1
 700 400 l 1
 600 400 l 1
 600 500 l 1
 600 600 l 1
 400 600 l 1
 200 600 l 1
 200 300 l 1
 200 0 l 1
 100 0 l 1
 0 0 l 1
 0 600 l 1
600 900 m 1
 600 1000 l 1
 400 1000 l 1
 200 1000 l 1
 200 900 l 1
 200 800 l 1
 400 800 l 1
 600 800 l 1
 600 900 l 1
EndSplineSet
Validated: 5
EndChar

StartChar: S
Encoding: 83 83 51
Width: 1200
Flags: HW
LayerCount: 2
Back
Fore
SplineSet
200 1100 m 1
 200 1200 l 1
 500 1200 l 1
 800 1200 l 1
 800 1100 l 1
 800 1000 l 1
 500 1000 l 1
 200 1000 l 1
 200 900 l 1
 200 800 l 1
 400 800 l 1
 600 800 l 1
 600 700 l 1
 600 600 l 1
 700 600 l 1
 800 600 l 1
 800 500 l 1
 800 400 l 1
 900 400 l 1
 1000 400 l 1
 1000 300 l 1
 1000 200 l 1
 900 200 l 1
 800 200 l 1
 800 100 l 1
 800 0 l 1
 500 0 l 1
 200 0 l 1
 200 100 l 1
 200 200 l 1
 100 200 l 1
 0 200 l 1
 0 300 l 1
 0 400 l 1
 100 400 l 1
 200 400 l 1
 200 300 l 1
 200 200 l 1
 500 200 l 1
 800 200 l 1
 800 300 l 1
 800 400 l 1
 700 400 l 1
 600 400 l 1
 600 500 l 1
 600 600 l 1
 400 600 l 1
 200 600 l 1
 200 700 l 1
 200 800 l 1
 100 800 l 1
 0 800 l 1
 0 900 l 1
 0 1000 l 1
 100 1000 l 1
 200 1000 l 1
 200 1100 l 1
EndSplineSet
Validated: 5
EndChar

StartChar: T
Encoding: 84 84 52
Width: 1200
Flags: HW
LayerCount: 2
Back
Fore
SplineSet
0 1100 m 1
 0 1200 l 1
 500 1200 l 1
 1000 1200 l 1
 1000 1100 l 1
 1000 1000 l 1
 800 1000 l 1
 600 1000 l 1
 600 500 l 1
 600 0 l 1
 500 0 l 1
 400 0 l 1
 400 500 l 1
 400 1000 l 1
 200 1000 l 1
 0 1000 l 1
 0 1100 l 1
EndSplineSet
Validated: 1
EndChar

StartChar: U
Encoding: 85 85 53
Width: 1200
Flags: HW
LayerCount: 2
Back
Fore
SplineSet
0 700 m 1
 0 1200 l 1
 100 1200 l 1
 200 1200 l 1
 200 700 l 1
 200 200 l 1
 500 200 l 1
 800 200 l 1
 800 500 l 1
 800 800 l 1
 700 800 l 1
 600 800 l 1
 600 1000 l 1
 600 1200 l 1
 700 1200 l 1
 800 1200 l 1
 800 1000 l 1
 800 800 l 1
 900 800 l 1
 1000 800 l 1
 1000 500 l 1
 1000 200 l 1
 900 200 l 1
 800 200 l 1
 800 100 l 1
 800 0 l 1
 500 0 l 1
 200 0 l 1
 200 100 l 1
 200 200 l 1
 100 200 l 1
 0 200 l 1
 0 700 l 1
EndSplineSet
Validated: 5
EndChar

StartChar: V
Encoding: 86 86 54
Width: 1200
Flags: HW
LayerCount: 2
Back
Fore
SplineSet
0 900 m 1
 0 1200 l 1
 100 1200 l 1
 200 1200 l 1
 200 900 l 1
 200 600 l 1
 300 600 l 1
 400 600 l 1
 400 400 l 1
 400 200 l 1
 500 200 l 1
 600 200 l 1
 600 400 l 1
 600 600 l 1
 700 600 l 1
 800 600 l 1
 800 800 l 1
 800 1000 l 1
 700 1000 l 1
 600 1000 l 1
 600 1100 l 1
 600 1200 l 1
 700 1200 l 1
 800 1200 l 1
 800 1100 l 1
 800 1000 l 1
 900 1000 l 1
 1000 1000 l 1
 1000 800 l 1
 1000 600 l 1
 900 600 l 1
 800 600 l 1
 800 400 l 1
 800 200 l 1
 700 200 l 1
 600 200 l 1
 600 100 l 1
 600 0 l 1
 500 0 l 1
 400 0 l 1
 400 100 l 1
 400 200 l 1
 300 200 l 1
 200 200 l 1
 200 400 l 1
 200 600 l 1
 100 600 l 1
 0 600 l 1
 0 900 l 1
EndSplineSet
Validated: 5
EndChar

StartChar: W
Encoding: 87 87 55
Width: 1200
Flags: HW
LayerCount: 2
Back
Fore
SplineSet
0 600 m 1
 0 1200 l 1
 100 1200 l 1
 200 1200 l 1
 200 800 l 1
 200 400 l 1
 300 400 l 1
 400 400 l 1
 400 500 l 1
 400 600 l 1
 500 600 l 1
 600 600 l 1
 600 500 l 1
 600 400 l 1
 700 400 l 1
 800 400 l 1
 800 700 l 1
 800 1000 l 1
 700 1000 l 1
 600 1000 l 1
 600 1100 l 1
 600 1200 l 1
 700 1200 l 1
 800 1200 l 1
 800 1100 l 1
 800 1000 l 1
 900 1000 l 1
 1000 1000 l 1
 1000 700 l 1
 1000 400 l 1
 900 400 l 1
 800 400 l 1
 800 200 l 1
 800 0 l 1
 700 0 l 1
 600 0 l 1
 600 200 l 1
 600 400 l 1
 500 400 l 1
 400 400 l 1
 400 300 l 1
 400 200 l 1
 300 200 l 1
 200 200 l 1
 200 100 l 1
 200 0 l 1
 100 0 l 1
 0 0 l 1
 0 600 l 1
EndSplineSet
Validated: 5
EndChar

StartChar: X
Encoding: 88 88 56
Width: 1200
Flags: HW
LayerCount: 2
Back
Fore
SplineSet
0 1100 m 1
 0 1200 l 1
 100 1200 l 1
 200 1200 l 1
 200 1100 l 1
 200 1000 l 1
 300 1000 l 1
 400 1000 l 1
 400 900 l 1
 400 800 l 1
 500 800 l 1
 600 800 l 1
 600 1000 l 1
 600 1200 l 1
 700 1200 l 1
 800 1200 l 1
 800 1000 l 1
 800 800 l 1
 700 800 l 1
 600 800 l 1
 600 700 l 1
 600 600 l 1
 700 600 l 1
 800 600 l 1
 800 500 l 1
 800 400 l 1
 900 400 l 1
 1000 400 l 1
 1000 200 l 1
 1000 0 l 1
 900 0 l 1
 800 0 l 1
 800 200 l 1
 800 400 l 1
 700 400 l 1
 600 400 l 1
 600 500 l 1
 600 600 l 1
 500 600 l 1
 400 600 l 1
 400 500 l 1
 400 400 l 1
 300 400 l 1
 200 400 l 1
 200 200 l 1
 200 0 l 1
 100 0 l 1
 0 0 l 1
 0 200 l 1
 0 400 l 1
 100 400 l 1
 200 400 l 1
 200 500 l 1
 200 600 l 1
 300 600 l 1
 400 600 l 1
 400 700 l 1
 400 800 l 1
 300 800 l 1
 200 800 l 1
 200 900 l 1
 200 1000 l 1
 100 1000 l 1
 0 1000 l 1
 0 1100 l 1
EndSplineSet
Validated: 5
EndChar

StartChar: Y
Encoding: 89 89 57
Width: 1200
Flags: HW
LayerCount: 2
Back
Fore
SplineSet
0 1000 m 1
 0 1200 l 1
 100 1200 l 1
 200 1200 l 1
 200 1000 l 1
 200 800 l 1
 300 800 l 1
 400 800 l 1
 400 700 l 1
 400 600 l 1
 500 600 l 1
 600 600 l 1
 600 800 l 1
 600 1000 l 1
 700 1000 l 1
 800 1000 l 1
 800 1100 l 1
 800 1200 l 1
 900 1200 l 1
 1000 1200 l 1
 1000 1100 l 1
 1000 1000 l 1
 900 1000 l 1
 800 1000 l 1
 800 800 l 1
 800 600 l 1
 700 600 l 1
 600 600 l 1
 600 500 l 1
 600 400 l 1
 700 400 l 1
 800 400 l 1
 800 200 l 1
 800 0 l 1
 700 0 l 1
 600 0 l 1
 600 200 l 1
 600 400 l 1
 500 400 l 1
 400 400 l 1
 400 500 l 1
 400 600 l 1
 300 600 l 1
 200 600 l 1
 200 700 l 1
 200 800 l 1
 100 800 l 1
 0 800 l 1
 0 1000 l 1
EndSplineSet
Validated: 5
EndChar

StartChar: Z
Encoding: 90 90 58
Width: 1200
Flags: HW
LayerCount: 2
Back
Fore
SplineSet
0 1100 m 1
 0 1200 l 1
 400 1200 l 1
 800 1200 l 1
 800 1000 l 1
 800 800 l 1
 700 800 l 1
 600 800 l 1
 600 700 l 1
 600 600 l 1
 500 600 l 1
 400 600 l 1
 400 500 l 1
 400 400 l 1
 300 400 l 1
 200 400 l 1
 200 300 l 1
 200 200 l 1
 600 200 l 1
 1000 200 l 1
 1000 100 l 1
 1000 0 l 1
 500 0 l 1
 0 0 l 1
 0 200 l 1
 0 400 l 1
 100 400 l 1
 200 400 l 1
 200 500 l 1
 200 600 l 1
 300 600 l 1
 400 600 l 1
 400 700 l 1
 400 800 l 1
 500 800 l 1
 600 800 l 1
 600 900 l 1
 600 1000 l 1
 300 1000 l 1
 0 1000 l 1
 0 1100 l 1
EndSplineSet
Validated: 5
EndChar

StartChar: bracketleft
Encoding: 91 91 59
Width: 800
Flags: HW
LayerCount: 2
Back
Fore
SplineSet
0 900 m 1
 0 1200 l 1
 200 1200 l 1
 400 1200 l 1
 400 1100 l 1
 400 1000 l 1
 300 1000 l 1
 200 1000 l 1
 200 800 l 1
 200 600 l 1
 300 600 l 1
 400 600 l 1
 400 400 l 1
 400 200 l 1
 500 200 l 1
 600 200 l 1
 600 100 l 1
 600 0 l 1
 400 0 l 1
 200 0 l 1
 200 300 l 1
 200 600 l 1
 100 600 l 1
 0 600 l 1
 0 900 l 1
EndSplineSet
Validated: 5
EndChar

StartChar: backslash
Encoding: 92 92 60
Width: 1000
Flags: HW
LayerCount: 2
Back
Fore
SplineSet
0 1100 m 1
 0 1200 l 1
 100 1200 l 1
 200 1200 l 1
 200 1100 l 1
 200 1000 l 1
 300 1000 l 1
 400 1000 l 1
 400 800 l 1
 400 600 l 1
 500 600 l 1
 600 600 l 1
 600 400 l 1
 600 200 l 1
 700 200 l 1
 800 200 l 1
 800 100 l 1
 800 0 l 1
 700 0 l 1
 600 0 l 1
 600 100 l 1
 600 200 l 1
 500 200 l 1
 400 200 l 1
 400 400 l 1
 400 600 l 1
 300 600 l 1
 200 600 l 1
 200 800 l 1
 200 1000 l 1
 100 1000 l 1
 0 1000 l 1
 0 1100 l 1
EndSplineSet
Validated: 5
EndChar

StartChar: bracketright
Encoding: 93 93 61
Width: 800
Flags: HW
LayerCount: 2
Back
Fore
SplineSet
0 1100 m 1
 0 1200 l 1
 200 1200 l 1
 400 1200 l 1
 400 900 l 1
 400 600 l 1
 500 600 l 1
 600 600 l 1
 600 300 l 1
 600 0 l 1
 400 0 l 1
 200 0 l 1
 200 100 l 1
 200 200 l 1
 300 200 l 1
 400 200 l 1
 400 400 l 1
 400 600 l 1
 300 600 l 1
 200 600 l 1
 200 800 l 1
 200 1000 l 1
 100 1000 l 1
 0 1000 l 1
 0 1100 l 1
EndSplineSet
Validated: 5
EndChar

StartChar: asciicircum
Encoding: 94 94 62
Width: 800
Flags: HW
LayerCount: 2
Back
Fore
SplineSet
200 1100 m 1
 200 1200 l 1
 300 1200 l 1
 400 1200 l 1
 400 1100 l 1
 400 1000 l 1
 500 1000 l 1
 600 1000 l 1
 600 900 l 1
 600 800 l 1
 500 800 l 1
 400 800 l 1
 400 900 l 1
 400 1000 l 1
 300 1000 l 1
 200 1000 l 1
 200 900 l 1
 200 800 l 1
 100 800 l 1
 0 800 l 1
 0 900 l 1
 0 1000 l 1
 100 1000 l 1
 200 1000 l 1
 200 1100 l 1
EndSplineSet
Validated: 5
EndChar

StartChar: underscore
Encoding: 95 95 63
Width: 1200
Flags: HW
LayerCount: 2
Back
Fore
SplineSet
0 100 m 1
 0 200 l 1
 500 200 l 1
 1000 200 l 1
 1000 100 l 1
 1000 0 l 1
 500 0 l 1
 0 0 l 1
 0 100 l 1
EndSplineSet
Validated: 1
EndChar

StartChar: grave
Encoding: 96 96 64
Width: 600
Flags: HW
LayerCount: 2
Back
Fore
SplineSet
0 1100 m 1
 0 1200 l 1
 200 1200 l 1
 400 1200 l 1
 400 1100 l 1
 400 1000 l 1
 200 1000 l 1
 0 1000 l 1
 0 1100 l 1
EndSplineSet
Validated: 1
EndChar

StartChar: a
Encoding: 97 97 65
Width: 800
Flags: HW
LayerCount: 2
Back
Fore
SplineSet
0 900 m 1
 0 1000 l 1
 200 1000 l 1
 400 1000 l 1
 400 900 l 1
 400 800 l 1
 500 800 l 1
 600 800 l 1
 600 400 l 1
 600 0 l 1
 400 0 l 1
 200 0 l 1
 200 100 l 1
 200 200 l 1
 100 200 l 1
 0 200 l 1
 0 300 l 1
 0 400 l 1
 100 400 l 1
 200 400 l 1
 200 500 l 1
 200 600 l 1
 300 600 l 1
 400 600 l 1
 400 700 l 1
 400 800 l 1
 200 800 l 1
 0 800 l 1
 0 900 l 1
400 300 m 1
 400 400 l 1
 300 400 l 1
 200 400 l 1
 200 300 l 1
 200 200 l 1
 300 200 l 1
 400 200 l 1
 400 300 l 1
EndSplineSet
Validated: 5
EndChar

StartChar: b
Encoding: 98 98 66
Width: 800
Flags: HW
LayerCount: 2
Back
Fore
SplineSet
0 600 m 1
 0 1200 l 1
 100 1200 l 1
 200 1200 l 1
 200 1000 l 1
 200 800 l 1
 300 800 l 1
 400 800 l 1
 400 700 l 1
 400 600 l 1
 500 600 l 1
 600 600 l 1
 600 400 l 1
 600 200 l 1
 500 200 l 1
 400 200 l 1
 400 100 l 1
 400 0 l 1
 200 0 l 1
 0 0 l 1
 0 600 l 1
400 400 m 1
 400 600 l 1
 300 600 l 1
 200 600 l 1
 200 400 l 1
 200 200 l 1
 300 200 l 1
 400 200 l 1
 400 400 l 1
EndSplineSet
Validated: 5
EndChar

StartChar: c
Encoding: 99 99 67
Width: 800
Flags: HW
LayerCount: 2
Back
Fore
SplineSet
200 900 m 1
 200 1000 l 1
 400 1000 l 1
 600 1000 l 1
 600 900 l 1
 600 800 l 1
 400 800 l 1
 200 800 l 1
 200 500 l 1
 200 200 l 1
 400 200 l 1
 600 200 l 1
 600 100 l 1
 600 0 l 1
 400 0 l 1
 200 0 l 1
 200 100 l 1
 200 200 l 1
 100 200 l 1
 0 200 l 1
 0 500 l 1
 0 800 l 1
 100 800 l 1
 200 800 l 1
 200 900 l 1
EndSplineSet
Validated: 5
EndChar

StartChar: d
Encoding: 100 100 68
Width: 800
Flags: HW
LayerCount: 2
Back
Fore
SplineSet
400 1000 m 1
 400 1200 l 1
 500 1200 l 1
 600 1200 l 1
 600 600 l 1
 600 0 l 1
 400 0 l 1
 200 0 l 1
 200 100 l 1
 200 200 l 1
 100 200 l 1
 0 200 l 1
 0 400 l 1
 0 600 l 1
 100 600 l 1
 200 600 l 1
 200 700 l 1
 200 800 l 1
 300 800 l 1
 400 800 l 1
 400 1000 l 1
400 400 m 1
 400 600 l 1
 300 600 l 1
 200 600 l 1
 200 400 l 1
 200 200 l 1
 300 200 l 1
 400 200 l 1
 400 400 l 1
EndSplineSet
Validated: 5
EndChar

StartChar: e
Encoding: 101 101 69
Width: 800
Flags: HW
LayerCount: 2
Back
Fore
SplineSet
200 900 m 1
 200 1000 l 1
 300 1000 l 1
 400 1000 l 1
 400 900 l 1
 400 800 l 1
 500 800 l 1
 600 800 l 1
 600 600 l 1
 600 400 l 1
 400 400 l 1
 200 400 l 1
 200 300 l 1
 200 200 l 1
 400 200 l 1
 600 200 l 1
 600 100 l 1
 600 0 l 1
 400 0 l 1
 200 0 l 1
 200 100 l 1
 200 200 l 1
 100 200 l 1
 0 200 l 1
 0 500 l 1
 0 800 l 1
 100 800 l 1
 200 800 l 1
 200 900 l 1
400 700 m 1
 400 800 l 1
 300 800 l 1
 200 800 l 1
 200 700 l 1
 200 600 l 1
 300 600 l 1
 400 600 l 1
 400 700 l 1
EndSplineSet
Validated: 5
EndChar

StartChar: f
Encoding: 102 102 70
Width: 800
Flags: HW
LayerCount: 2
Back
Fore
SplineSet
200 900 m 1
 200 1000 l 1
 400 1000 l 1
 600 1000 l 1
 600 900 l 1
 600 800 l 1
 400 800 l 1
 200 800 l 1
 200 700 l 1
 200 600 l 1
 300 600 l 1
 400 600 l 1
 400 500 l 1
 400 400 l 1
 300 400 l 1
 200 400 l 1
 200 200 l 1
 200 0 l 1
 100 0 l 1
 0 0 l 1
 0 400 l 1
 0 800 l 1
 100 800 l 1
 200 800 l 1
 200 900 l 1
EndSplineSet
Validated: 5
EndChar

StartChar: g
Encoding: 103 103 71
Width: 800
Flags: HW
LayerCount: 2
Back
Fore
SplineSet
200 900 m 1
 200 1000 l 1
 400 1000 l 1
 600 1000 l 1
 600 500 l 1
 600 0 l 1
 500 0 l 1
 400 0 l 1
 400 -100 l 1
 400 -200 l 1
 300 -200 l 1
 200 -200 l 1
 200 -100 l 1
 200 0 l 1
 300 0 l 1
 400 0 l 1
 400 100 l 1
 400 200 l 1
 300 200 l 1
 200 200 l 1
 200 300 l 1
 200 400 l 1
 100 400 l 1
 0 400 l 1
 0 600 l 1
 0 800 l 1
 100 800 l 1
 200 800 l 1
 200 900 l 1
400 600 m 1
 400 800 l 1
 300 800 l 1
 200 800 l 1
 200 600 l 1
 200 400 l 1
 300 400 l 1
 400 400 l 1
 400 600 l 1
EndSplineSet
Validated: 5
EndChar

StartChar: h
Encoding: 104 104 72
Width: 800
Flags: HW
LayerCount: 2
Back
Fore
SplineSet
0 600 m 1
 0 1200 l 1
 100 1200 l 1
 200 1200 l 1
 200 1000 l 1
 200 800 l 1
 300 800 l 1
 400 800 l 1
 400 700 l 1
 400 600 l 1
 500 600 l 1
 600 600 l 1
 600 300 l 1
 600 0 l 1
 500 0 l 1
 400 0 l 1
 400 300 l 1
 400 600 l 1
 300 600 l 1
 200 600 l 1
 200 300 l 1
 200 0 l 1
 100 0 l 1
 0 0 l 1
 0 600 l 1
EndSplineSet
Validated: 5
EndChar

StartChar: i
Encoding: 105 105 73
Width: 400
Flags: HW
LayerCount: 2
Back
Fore
SplineSet
0 400 m 1
 0 800 l 1
 100 800 l 1
 200 800 l 1
 200 400 l 1
 200 0 l 1
 100 0 l 1
 0 0 l 1
 0 400 l 1
0 1100 m 1
 0 1200 l 1
 100 1200 l 1
 200 1200 l 1
 200 1100 l 1
 200 1000 l 1
 100 1000 l 1
 0 1000 l 1
 0 1100 l 1
EndSplineSet
Validated: 1
EndChar

StartChar: j
Encoding: 106 106 74
Width: 800
Flags: HW
LayerCount: 2
Back
Fore
SplineSet
400 400 m 1
 400 800 l 1
 500 800 l 1
 600 800 l 1
 600 400 l 1
 600 0 l 1
 500 0 l 1
 400 0 l 1
 400 -100 l 1
 400 -200 l 1
 300 -200 l 1
 200 -200 l 1
 200 -100 l 1
 200 0 l 1
 100 0 l 1
 0 0 l 1
 0 100 l 1
 0 200 l 1
 100 200 l 1
 200 200 l 1
 200 100 l 1
 200 0 l 1
 300 0 l 1
 400 0 l 1
 400 400 l 1
400 1100 m 1
 400 1200 l 1
 500 1200 l 1
 600 1200 l 1
 600 1100 l 1
 600 1000 l 1
 500 1000 l 1
 400 1000 l 1
 400 1100 l 1
EndSplineSet
Validated: 5
EndChar

StartChar: k
Encoding: 107 107 75
Width: 800
Flags: HW
LayerCount: 2
Back
Fore
SplineSet
0 600 m 1
 0 1200 l 1
 100 1200 l 1
 200 1200 l 1
 200 900 l 1
 200 600 l 1
 300 600 l 1
 400 600 l 1
 400 700 l 1
 400 800 l 1
 500 800 l 1
 600 800 l 1
 600 700 l 1
 600 600 l 1
 500 600 l 1
 400 600 l 1
 400 500 l 1
 400 400 l 1
 500 400 l 1
 600 400 l 1
 600 200 l 1
 600 0 l 1
 500 0 l 1
 400 0 l 1
 400 200 l 1
 400 400 l 1
 300 400 l 1
 200 400 l 1
 200 200 l 1
 200 0 l 1
 100 0 l 1
 0 0 l 1
 0 600 l 1
EndSplineSet
Validated: 5
EndChar

StartChar: l
Encoding: 108 108 76
Width: 400
Flags: HW
LayerCount: 2
Back
Fore
SplineSet
0 600 m 1
 0 1200 l 1
 100 1200 l 1
 200 1200 l 1
 200 600 l 1
 200 0 l 1
 100 0 l 1
 0 0 l 1
 0 600 l 1
EndSplineSet
Validated: 1
EndChar

StartChar: m
Encoding: 109 109 77
Width: 1200
Flags: HW
LayerCount: 2
Back
Fore
SplineSet
0 500 m 1
 0 1000 l 1
 200 1000 l 1
 400 1000 l 1
 400 900 l 1
 400 800 l 1
 500 800 l 1
 600 800 l 1
 600 900 l 1
 600 1000 l 1
 700 1000 l 1
 800 1000 l 1
 800 900 l 1
 800 800 l 1
 900 800 l 1
 1000 800 l 1
 1000 400 l 1
 1000 0 l 1
 900 0 l 1
 800 0 l 1
 800 400 l 1
 800 800 l 1
 700 800 l 1
 600 800 l 1
 600 400 l 1
 600 0 l 1
 500 0 l 1
 400 0 l 1
 400 400 l 1
 400 800 l 1
 300 800 l 1
 200 800 l 1
 200 400 l 1
 200 0 l 1
 100 0 l 1
 0 0 l 1
 0 500 l 1
EndSplineSet
Validated: 5
EndChar

StartChar: n
Encoding: 110 110 78
Width: 800
Flags: HW
LayerCount: 2
Back
Fore
SplineSet
0 500 m 1
 0 1000 l 1
 200 1000 l 1
 400 1000 l 1
 400 900 l 1
 400 800 l 1
 500 800 l 1
 600 800 l 1
 600 400 l 1
 600 0 l 1
 500 0 l 1
 400 0 l 1
 400 400 l 1
 400 800 l 1
 300 800 l 1
 200 800 l 1
 200 400 l 1
 200 0 l 1
 100 0 l 1
 0 0 l 1
 0 500 l 1
EndSplineSet
Validated: 5
EndChar

StartChar: o
Encoding: 111 111 79
Width: 800
Flags: HW
LayerCount: 2
Back
Fore
SplineSet
200 900 m 1
 200 1000 l 1
 300 1000 l 1
 400 1000 l 1
 400 900 l 1
 400 800 l 1
 500 800 l 1
 600 800 l 1
 600 500 l 1
 600 200 l 1
 500 200 l 1
 400 200 l 1
 400 100 l 1
 400 0 l 1
 300 0 l 1
 200 0 l 1
 200 100 l 1
 200 200 l 1
 100 200 l 1
 0 200 l 1
 0 500 l 1
 0 800 l 1
 100 800 l 1
 200 800 l 1
 200 900 l 1
400 500 m 1
 400 800 l 1
 300 800 l 1
 200 800 l 1
 200 500 l 1
 200 200 l 1
 300 200 l 1
 400 200 l 1
 400 500 l 1
EndSplineSet
Validated: 5
EndChar

StartChar: p
Encoding: 112 112 80
Width: 800
Flags: HW
LayerCount: 2
Back
Fore
SplineSet
0 400 m 1
 0 1000 l 1
 200 1000 l 1
 400 1000 l 1
 400 900 l 1
 400 800 l 1
 500 800 l 1
 600 800 l 1
 600 600 l 1
 600 400 l 1
 500 400 l 1
 400 400 l 1
 400 300 l 1
 400 200 l 1
 300 200 l 1
 200 200 l 1
 200 0 l 1
 200 -200 l 1
 100 -200 l 1
 0 -200 l 1
 0 400 l 1
400 600 m 1
 400 800 l 1
 300 800 l 1
 200 800 l 1
 200 600 l 1
 200 400 l 1
 300 400 l 1
 400 400 l 1
 400 600 l 1
EndSplineSet
Validated: 5
EndChar

StartChar: q
Encoding: 113 113 81
Width: 800
Flags: HW
LayerCount: 2
Back
Fore
SplineSet
200 900 m 1
 200 1000 l 1
 400 1000 l 1
 600 1000 l 1
 600 400 l 1
 600 -200 l 1
 500 -200 l 1
 400 -200 l 1
 400 0 l 1
 400 200 l 1
 300 200 l 1
 200 200 l 1
 200 300 l 1
 200 400 l 1
 100 400 l 1
 0 400 l 1
 0 600 l 1
 0 800 l 1
 100 800 l 1
 200 800 l 1
 200 900 l 1
400 600 m 1
 400 800 l 1
 300 800 l 1
 200 800 l 1
 200 600 l 1
 200 400 l 1
 300 400 l 1
 400 400 l 1
 400 600 l 1
EndSplineSet
Validated: 5
EndChar

StartChar: r
Encoding: 114 114 82
Width: 800
Flags: HW
LayerCount: 2
Back
Fore
SplineSet
0 500 m 1
 0 1000 l 1
 100 1000 l 1
 200 1000 l 1
 200 900 l 1
 200 800 l 1
 300 800 l 1
 400 800 l 1
 400 900 l 1
 400 1000 l 1
 500 1000 l 1
 600 1000 l 1
 600 900 l 1
 600 800 l 1
 500 800 l 1
 400 800 l 1
 400 700 l 1
 400 600 l 1
 300 600 l 1
 200 600 l 1
 200 300 l 1
 200 0 l 1
 100 0 l 1
 0 0 l 1
 0 500 l 1
EndSplineSet
Validated: 5
EndChar

StartChar: s
Encoding: 115 115 83
Width: 800
Flags: HW
LayerCount: 2
Back
Fore
SplineSet
200 900 m 1
 200 1000 l 1
 400 1000 l 1
 600 1000 l 1
 600 900 l 1
 600 800 l 1
 400 800 l 1
 200 800 l 1
 200 700 l 1
 200 600 l 1
 300 600 l 1
 400 600 l 1
 400 500 l 1
 400 400 l 1
 500 400 l 1
 600 400 l 1
 600 300 l 1
 600 200 l 1
 500 200 l 1
 400 200 l 1
 400 100 l 1
 400 0 l 1
 200 0 l 1
 0 0 l 1
 0 100 l 1
 0 200 l 1
 200 200 l 1
 400 200 l 1
 400 300 l 1
 400 400 l 1
 300 400 l 1
 200 400 l 1
 200 500 l 1
 200 600 l 1
 100 600 l 1
 0 600 l 1
 0 700 l 1
 0 800 l 1
 100 800 l 1
 200 800 l 1
 200 900 l 1
EndSplineSet
Validated: 5
EndChar

StartChar: t
Encoding: 116 116 84
Width: 800
Flags: HW
LayerCount: 2
Back
Fore
SplineSet
0 700 m 1
 0 1200 l 1
 100 1200 l 1
 200 1200 l 1
 200 1100 l 1
 200 1000 l 1
 300 1000 l 1
 400 1000 l 1
 400 900 l 1
 400 800 l 1
 300 800 l 1
 200 800 l 1
 200 500 l 1
 200 200 l 1
 300 200 l 1
 400 200 l 1
 400 300 l 1
 400 400 l 1
 500 400 l 1
 600 400 l 1
 600 300 l 1
 600 200 l 1
 500 200 l 1
 400 200 l 1
 400 100 l 1
 400 0 l 1
 300 0 l 1
 200 0 l 1
 200 100 l 1
 200 200 l 1
 100 200 l 1
 0 200 l 1
 0 700 l 1
EndSplineSet
Validated: 5
EndChar

StartChar: u
Encoding: 117 117 85
Width: 800
Flags: HW
LayerCount: 2
Back
Fore
SplineSet
0 600 m 1
 0 1000 l 1
 100 1000 l 1
 200 1000 l 1
 200 600 l 1
 200 200 l 1
 300 200 l 1
 400 200 l 1
 400 600 l 1
 400 1000 l 1
 500 1000 l 1
 600 1000 l 1
 600 500 l 1
 600 0 l 1
 400 0 l 1
 200 0 l 1
 200 100 l 1
 200 200 l 1
 100 200 l 1
 0 200 l 1
 0 600 l 1
EndSplineSet
Validated: 5
EndChar

StartChar: v
Encoding: 118 118 86
Width: 800
Flags: HW
LayerCount: 2
Back
Fore
SplineSet
0 600 m 1
 0 1000 l 1
 100 1000 l 1
 200 1000 l 1
 200 600 l 1
 200 200 l 1
 300 200 l 1
 400 200 l 1
 400 600 l 1
 400 1000 l 1
 500 1000 l 1
 600 1000 l 1
 600 600 l 1
 600 200 l 1
 500 200 l 1
 400 200 l 1
 400 100 l 1
 400 0 l 1
 300 0 l 1
 200 0 l 1
 200 100 l 1
 200 200 l 1
 100 200 l 1
 0 200 l 1
 0 600 l 1
EndSplineSet
Validated: 5
EndChar

StartChar: w
Encoding: 119 119 87
Width: 1200
Flags: HW
LayerCount: 2
Back
Fore
SplineSet
0 600 m 1
 0 1000 l 1
 100 1000 l 1
 200 1000 l 1
 200 600 l 1
 200 200 l 1
 300 200 l 1
 400 200 l 1
 400 300 l 1
 400 400 l 1
 500 400 l 1
 600 400 l 1
 600 300 l 1
 600 200 l 1
 700 200 l 1
 800 200 l 1
 800 600 l 1
 800 1000 l 1
 900 1000 l 1
 1000 1000 l 1
 1000 600 l 1
 1000 200 l 1
 900 200 l 1
 800 200 l 1
 800 100 l 1
 800 0 l 1
 700 0 l 1
 600 0 l 1
 600 100 l 1
 600 200 l 1
 500 200 l 1
 400 200 l 1
 400 100 l 1
 400 0 l 1
 300 0 l 1
 200 0 l 1
 200 100 l 1
 200 200 l 1
 100 200 l 1
 0 200 l 1
 0 600 l 1
EndSplineSet
Validated: 5
EndChar

StartChar: x
Encoding: 120 120 88
Width: 800
Flags: HW
LayerCount: 2
Back
Fore
SplineSet
0 800 m 1
 0 1000 l 1
 100 1000 l 1
 200 1000 l 1
 200 800 l 1
 200 600 l 1
 300 600 l 1
 400 600 l 1
 400 800 l 1
 400 1000 l 1
 500 1000 l 1
 600 1000 l 1
 600 800 l 1
 600 600 l 1
 500 600 l 1
 400 600 l 1
 400 500 l 1
 400 400 l 1
 500 400 l 1
 600 400 l 1
 600 200 l 1
 600 0 l 1
 500 0 l 1
 400 0 l 1
 400 200 l 1
 400 400 l 1
 300 400 l 1
 200 400 l 1
 200 200 l 1
 200 0 l 1
 100 0 l 1
 0 0 l 1
 0 200 l 1
 0 400 l 1
 100 400 l 1
 200 400 l 1
 200 500 l 1
 200 600 l 1
 100 600 l 1
 0 600 l 1
 0 800 l 1
EndSplineSet
Validated: 5
EndChar

StartChar: y
Encoding: 121 121 89
Width: 800
Flags: HW
LayerCount: 2
Back
Fore
SplineSet
0 800 m 1
 0 1000 l 1
 100 1000 l 1
 200 1000 l 1
 200 800 l 1
 200 600 l 1
 300 600 l 1
 400 600 l 1
 400 800 l 1
 400 1000 l 1
 500 1000 l 1
 600 1000 l 1
 600 500 l 1
 600 0 l 1
 500 0 l 1
 400 0 l 1
 400 -100 l 1
 400 -200 l 1
 300 -200 l 1
 200 -200 l 1
 200 -100 l 1
 200 0 l 1
 300 0 l 1
 400 0 l 1
 400 200 l 1
 400 400 l 1
 300 400 l 1
 200 400 l 1
 200 500 l 1
 200 600 l 1
 100 600 l 1
 0 600 l 1
 0 800 l 1
EndSplineSet
Validated: 5
EndChar

StartChar: z
Encoding: 122 122 90
Width: 800
Flags: HW
LayerCount: 2
Back
Fore
SplineSet
0 900 m 1
 0 1000 l 1
 300 1000 l 1
 600 1000 l 1
 600 800 l 1
 600 600 l 1
 500 600 l 1
 400 600 l 1
 400 500 l 1
 400 400 l 1
 300 400 l 1
 200 400 l 1
 200 300 l 1
 200 200 l 1
 400 200 l 1
 600 200 l 1
 600 100 l 1
 600 0 l 1
 300 0 l 1
 0 0 l 1
 0 200 l 1
 0 400 l 1
 100 400 l 1
 200 400 l 1
 200 500 l 1
 200 600 l 1
 300 600 l 1
 400 600 l 1
 400 700 l 1
 400 800 l 1
 200 800 l 1
 0 800 l 1
 0 900 l 1
EndSplineSet
Validated: 5
EndChar

StartChar: braceleft
Encoding: 123 123 91
Width: 800
Flags: HW
LayerCount: 2
Back
Fore
SplineSet
400 1100 m 1
 400 1200 l 1
 500 1200 l 1
 600 1200 l 1
 600 1100 l 1
 600 1000 l 1
 500 1000 l 1
 400 1000 l 1
 400 900 l 1
 400 800 l 1
 300 800 l 1
 200 800 l 1
 200 700 l 1
 200 600 l 1
 300 600 l 1
 400 600 l 1
 400 400 l 1
 400 200 l 1
 500 200 l 1
 600 200 l 1
 600 100 l 1
 600 0 l 1
 500 0 l 1
 400 0 l 1
 400 100 l 1
 400 200 l 1
 300 200 l 1
 200 200 l 1
 200 400 l 1
 200 600 l 1
 100 600 l 1
 0 600 l 1
 0 700 l 1
 0 800 l 1
 100 800 l 1
 200 800 l 1
 200 900 l 1
 200 1000 l 1
 300 1000 l 1
 400 1000 l 1
 400 1100 l 1
EndSplineSet
Validated: 5
EndChar

StartChar: bar
Encoding: 124 124 92
Width: 400
Flags: HW
LayerCount: 2
Back
Fore
SplineSet
0 500 m 1
 0 1200 l 1
 100 1200 l 1
 200 1200 l 1
 200 500 l 1
 200 -200 l 1
 100 -200 l 1
 0 -200 l 1
 0 500 l 1
EndSplineSet
Validated: 1
EndChar

StartChar: braceright
Encoding: 125 125 93
Width: 800
Flags: HW
LayerCount: 2
Back
Fore
SplineSet
0 1100 m 1
 0 1200 l 1
 100 1200 l 1
 200 1200 l 1
 200 1100 l 1
 200 1000 l 1
 300 1000 l 1
 400 1000 l 1
 400 800 l 1
 400 600 l 1
 500 600 l 1
 600 600 l 1
 600 500 l 1
 600 400 l 1
 500 400 l 1
 400 400 l 1
 400 300 l 1
 400 200 l 1
 300 200 l 1
 200 200 l 1
 200 100 l 1
 200 0 l 1
 100 0 l 1
 0 0 l 1
 0 100 l 1
 0 200 l 1
 100 200 l 1
 200 200 l 1
 200 300 l 1
 200 400 l 1
 300 400 l 1
 400 400 l 1
 400 500 l 1
 400 600 l 1
 300 600 l 1
 200 600 l 1
 200 800 l 1
 200 1000 l 1
 100 1000 l 1
 0 1000 l 1
 0 1100 l 1
EndSplineSet
Validated: 5
EndChar

StartChar: asciitilde
Encoding: 126 126 94
Width: 1200
Flags: HW
LayerCount: 2
Back
Fore
SplineSet
200 900 m 1
 200 1000 l 1
 300 1000 l 1
 400 1000 l 1
 400 900 l 1
 400 800 l 1
 500 800 l 1
 600 800 l 1
 600 700 l 1
 600 600 l 1
 700 600 l 1
 800 600 l 1
 800 700 l 1
 800 800 l 1
 900 800 l 1
 1000 800 l 1
 1000 700 l 1
 1000 600 l 1
 900 600 l 1
 800 600 l 1
 800 500 l 1
 800 400 l 1
 700 400 l 1
 600 400 l 1
 600 500 l 1
 600 600 l 1
 500 600 l 1
 400 600 l 1
 400 700 l 1
 400 800 l 1
 300 800 l 1
 200 800 l 1
 200 700 l 1
 200 600 l 1
 100 600 l 1
 0 600 l 1
 0 700 l 1
 0 800 l 1
 100 800 l 1
 200 800 l 1
 200 900 l 1
EndSplineSet
Validated: 5
EndChar
